<svg width="1024" height="1024" xmlns="http://www.w3.org/2000/svg">
    <!-- Purple circular background -->
    <circle cx="512" cy="512" r="512" fill="#9C5BAF" />

    <!-- White document/paper with shadow -->
    <rect x="230" y="180" width="564" height="720" fill="#ffffff" rx="25" ry="25" />

    <!-- Folded corner (top right) -->
    <path d="M 714 180 L 794 180 L 794 260 Z" fill="#e6e6e6" />
    <path d="M 714 180 L 794 260 L 714 260 Z" fill="#d9d9d9" />

    <!-- Resume header line (name) -->
    <rect x="280" y="260" width="400" height="20" fill="#9C5BAF" rx="3" />

    <!-- Resume text lines -->
    <rect x="280" y="320" width="464" height="12" fill="#cccccc" rx="2" />
    <rect x="280" y="350" width="440" height="12" fill="#cccccc" rx="2" />
    <rect x="280" y="380" width="410" height="12" fill="#cccccc" rx="2" />

    <!-- Section divider -->
    <rect x="280" y="430" width="180" height="15" fill="#7B4896" rx="2" />

    <!-- More text lines -->
    <rect x="280" y="470" width="464" height="10" fill="#cccccc" rx="2" />
    <rect x="280" y="495" width="420" height="10" fill="#cccccc" rx="2" />
    <rect x="280" y="520" width="450" height="10" fill="#cccccc" rx="2" />

    <!-- Another section -->
    <rect x="280" y="570" width="200" height="15" fill="#7B4896" rx="2" />

    <!-- Final text lines -->
    <rect x="280" y="610" width="464" height="10" fill="#cccccc" rx="2" />
    <rect x="280" y="635" width="400" height="10" fill="#cccccc" rx="2" />
    <rect x="280" y="660" width="380" height="10" fill="#cccccc" rx="2" />

    <!-- Pen/edit icon in bottom right -->
    <circle cx="720" cy="820" r="50" fill="#7B4896" />
    <path d="M 705 830 L 735 830 L 720 860 Z" fill="#ffffff" />
</svg>